name kv05_filtered_grf.mot
datacolumns 37
datarows 14
range 0.002500 0.009000
endheader
time	1_ground_force_vx	1_ground_force_vy	1_ground_force_vz	1_ground_force_px	1_ground_force_py	1_ground_force_pz	1_ground_torque_x	1_ground_torque_y	1_ground_torque_z	2_ground_force_vx	2_ground_force_vy	2_ground_force_vz	2_ground_force_px	2_ground_force_py	2_ground_force_pz	2_ground_torque_x	2_ground_torque_y	2_ground_torque_z	3_ground_force_vx	3_ground_force_vy	3_ground_force_vz	3_ground_force_px	3_ground_force_py	3_ground_force_pz	3_ground_torque_x	3_ground_torque_y	3_ground_torque_z	4_ground_force_vx	4_ground_force_vy	4_ground_force_vz	4_ground_force_px	4_ground_force_py	4_ground_force_pz	4_ground_torque_x	4_ground_torque_y	4_ground_torque_z
            0.002500	          -63.351205	          861.095864	          121.448167	            0.127730	            0.000000	            0.225543	           -0.708879	            9.635376	            1.358965	           94.377381	          840.161839	           89.135774	           -0.177317	            0.000000	            0.242134	            2.811417	           25.027661	            2.655274	          -17.209266	          -17.983562	         -111.338058	            0.387327	            0.970932	            1.072404	            0.239290	            0.250056	            1.548124	           26.090657	          -63.758006	         -158.238851	           -0.368910	            0.969952	            1.106848	            0.336008	           -0.821106	           -2.037875
            0.003000	          -62.721826	          857.327978	          120.718478	            0.127705	            0.000000	            0.225721	           -0.707308	            9.668010	            1.361331	           93.847283	          835.384209	           88.331885	           -0.177325	            0.000000	            0.242193	            2.790742	           24.841868	            2.626730	          -17.631119	          -17.393728	         -110.743463	            0.387327	            0.970932	            1.072404	            0.245866	            0.242556	            1.544321	           26.473267	          -63.690431	         -157.926800	           -0.368910	            0.969952	            1.106848	            0.339068	           -0.815742	           -2.022714
            0.003500	          -62.074910	          853.404882	          119.968301	            0.127678	            0.000000	            0.225903	           -0.705565	            9.700099	            1.363602	           93.295114	          830.423368	           87.508551	           -0.177335	            0.000000	            0.242257	            2.769335	           24.649957	            2.597569	          -18.052579	          -16.790646	         -110.140515	            0.387272	            0.970893	            1.072400	            0.252422	            0.234777	            1.540052	           26.856847	          -63.619292	         -157.602774	           -0.368895	            0.969942	            1.106839	            0.342056	           -0.810272	           -2.007271
            0.004000	          -61.410841	          849.324173	          119.197304	            0.127649	            0.000000	            0.226088	           -0.703645	            9.731555	            1.365762	           92.720653	          825.277701	           86.666022	           -0.177346	            0.000000	            0.242325	            2.747195	           24.451931	            2.567804	          -18.472710	          -16.174743	         -109.529935	            0.387217	            0.970853	            1.072396	            0.258934	            0.226723	            1.535295	           27.240873	          -63.544313	         -157.266626	           -0.368880	            0.969931	            1.106830	            0.344966	           -0.804695	           -1.991551
            0.004500	          -60.730038	          845.083535	          118.405133	            0.127617	            0.000000	            0.226276	           -0.701545	            9.762288	            1.367800	           92.123702	          819.945775	           85.804555	           -0.177359	            0.000000	            0.242398	            2.724323	           24.247799	            2.537450	          -18.890559	          -15.546462	         -108.912458	            0.387162	            0.970814	            1.072393	            0.265380	            0.218401	            1.530031	           27.624828	          -63.465203	         -156.918219	           -0.368865	            0.969921	            1.106820	            0.347789	           -0.799010	           -1.975558
            0.005000	          -60.032953	          840.680742	          117.591417	            0.127584	            0.000000	            0.226468	           -0.699261	            9.792210	            1.369699	           91.504092	          814.426347	           84.924417	           -0.177374	            0.000000	            0.242474	            2.700719	           24.037576	            2.506522	          -19.305167	          -14.906257	         -108.288828	            0.387107	            0.970774	            1.072389	            0.271734	            0.209816	            1.524240	           28.008202	          -63.381660	         -156.557420	           -0.368849	            0.969911	            1.106811	            0.350519	           -0.793213	           -1.959296
            0.005500	          -59.320071	          836.113666	          116.755764	            0.127548	            0.000000	            0.226663	           -0.696791	            9.821232	            1.371447	           90.861680	          808.718370	           84.025883	           -0.177391	            0.000000	            0.242556	            2.676386	           23.821287	            2.475033	          -19.713881	          -14.253870	         -107.660204	            0.387054	            0.970736	            1.072385	            0.277947	            0.200966	            1.517908	           28.388862	          -63.295215	         -156.183652	           -0.368834	            0.969900	            1.106803	            0.353128	           -0.787327	           -1.942764
            0.006000	          -58.591910	          831.380282	          115.897766	            0.127510	            0.000000	            0.226861	           -0.694132	            9.849267	            1.373028	           90.196355	          802.821004	           83.109230	           -0.177409	            0.000000	            0.242642	            2.651326	           23.598959	            2.442999	          -20.117412	          -13.590508	         -107.026947	            0.387001	            0.970697	            1.072382	            0.284019	            0.191872	            1.511013	           28.767948	          -63.203679	         -155.797264	           -0.368818	            0.969889	            1.106794	            0.355630	           -0.781326	           -1.925971
            0.006500	          -57.849016	          826.478673	          115.016998	            0.127469	            0.000000	            0.227063	           -0.691282	            9.876228	            1.374426	           89.508035	          796.733616	           82.174746	           -0.177429	            0.000000	            0.242733	            2.625544	           23.370629	            2.410436	          -20.514787	          -12.916647	         -106.389819	            0.386947	            0.970659	            1.072378	            0.289922	            0.182543	            1.503539	           29.144983	          -63.106709	         -155.398149	           -0.368803	            0.969878	            1.106785	            0.358019	           -0.775206	           -1.908919
            0.007000	          -57.091969	          821.407038	          114.113020	            0.127426	            0.000000	            0.227267	           -0.688242	            9.902031	            1.375628	           88.796669	          790.455798	           81.222722	           -0.177451	            0.000000	            0.242828	            2.599045	           23.136339	            2.377358	          -20.905038	          -12.232772	         -105.749579	            0.386894	            0.970621	            1.072375	            0.295631	            0.172991	            1.495472	           29.519504	          -63.003949	         -154.986209	           -0.368787	            0.969867	            1.106777	            0.360287	           -0.768966	           -1.891613
            0.007500	          -56.321375	          816.163696	          113.185380	            0.127381	            0.000000	            0.227474	           -0.685009	            9.926591	            1.376617	           88.062239	          783.987364	           80.253453	           -0.177474	            0.000000	            0.242929	            2.571834	           22.896139	            2.343780	          -21.287201	          -11.539366	         -105.106984	            0.386841	            0.970582	            1.072371	            0.301120	            0.163231	            1.486799	           29.891062	          -62.895034	         -154.561356	           -0.368772	            0.969856	            1.106768	            0.362429	           -0.762601	           -1.874054
            0.008000	          -55.537866	          810.747096	          112.233617	            0.127333	            0.000000	            0.227684	           -0.681584	            9.949826	            1.377378	           87.304761	          777.328363	           79.267240	           -0.177500	            0.000000	            0.243035	            2.543919	           22.650086	            2.309719	          -21.658025	          -10.835948	         -104.463361	            0.386791	            0.970546	            1.072368	            0.306329	            0.153262	            1.477519	           30.257222	          -62.782349	         -154.122779	           -0.368755	            0.969845	            1.106761	            0.364414	           -0.756143	           -1.856236
            0.008500	          -54.742103	          805.155823	          111.257261	            0.127282	            0.000000	            0.227897	           -0.677967	            9.971655	            1.377894	           86.524284	          770.479084	           78.264391	           -0.177527	            0.000000	            0.243146	            2.515308	           22.398243	            2.275188	          -22.018845	          -10.123976	         -103.818885	            0.386742	            0.970510	            1.072365	            0.311265	            0.143116	            1.467615	           30.619574	          -62.662727	         -153.671161	           -0.368739	            0.969833	            1.106754	            0.366262	           -0.749553	           -1.838169
            0.009000	          -53.934769	          799.388601	          110.255840	            0.127229	            0.000000	            0.228112	           -0.674160	            9.991998	            1.378148	           85.720895	          763.440066	           77.245216	           -0.177555	            0.000000	            0.243262	            2.486009	           22.140681	            2.240204	          -22.368731	           -9.403929	         -103.174285	            0.386693	            0.970473	            1.072362	            0.315903	            0.132807	            1.457083	           30.977721	          -62.535772	         -153.206446	           -0.368723	            0.969821	            1.106746	            0.367967	           -0.742828	           -1.819856
